<svg xmlns="http://www.w3.org/2000/svg" viewBox="0 0 502 502"><path d="M493.913 314.198c-16.88 64.886-58.02 119.313-115.836 153.256-57.816 33.943-125.39 43.34-190.276 26.459-64.885-16.88-119.311-58.018-153.255-115.836C.602 320.26-8.794 252.687 8.086 187.802 24.968 122.916 66.107 68.49 123.924 34.546 181.739.603 249.313-8.794 314.199 8.087c64.885 16.88 119.311 58.018 153.255 115.836 33.944 57.817 43.34 125.39 26.46 190.275zM134.048 51.793a232.292 232.292 0 0 0-23.98 16.167l58.278 33.302c4.796 2.74 6.461 8.85 3.721 13.644-2.74 4.793-8.848 6.46-13.644 3.721L93.818 81.71c-77.682 72.104-97.85 191.152-42.025 286.242 26.675 45.436 66.59 78.377 111.995 96.838l-1.786-213.131c0-.123.018-.24.022-.362-.051-30.608 15.67-60.465 43.917-77.048 42.32-24.846 96.964-10.629 121.81 31.692 24.846 42.32 10.629 96.964-31.692 121.81-38.128 22.384-86.255 13.058-113.586-19.958l1.375 164.106c59.601 18.092 126.282 12.254 184.104-21.692C450.607 401.68 491.95 309.362 479.88 219.832l-99.309 58.303c-4.763 2.796-10.89 1.2-13.686-3.561-2.796-4.762-1.202-10.89 3.56-13.687l105.617-62.006c-5.141-22.26-13.692-44.115-25.855-64.833C385.719 24.205 243.89-12.694 134.048 51.793zm57.449 234.14c19.262 32.811 61.626 43.833 94.437 24.57 32.81-19.262 43.832-61.626 24.57-94.437-19.263-32.81-61.627-43.832-94.438-24.57-32.81 19.263-43.832 61.627-24.57 94.438z" fill="teal"/><path d="M230.12 148.08c-2.741 4.793-8.848 6.46-13.643 3.722l-24.022-13.728c-4.796-2.74-6.462-8.848-3.721-13.644a10 10 0 0 1 13.644-3.72l24.022 13.727c4.794 2.74 6.46 8.849 3.72 13.644z" fill="teal"/></svg>