<svg version="1" xmlns="http://www.w3.org/2000/svg" width="682.667" height="682.667" viewBox="0 0 512 512"><path d="M236.9.4c-.2.2-3.3.6-6.9 1-32.7 3-70.4 15-99.8 31.8C56.7 75.3 11.5 144.6 1.1 231c-.8 7.4-.7 48.7.2 52.5.3 1.1.8 4.9 1.3 8.5.4 3.6.8 6.7.9 7 .1.3.5 2.3.9 4.5 4.6 23.3 11.6 43.9 22.1 65 7.3 14.9 20.8 37.1 26.2 43 1 1.2 3.4 4.1 5.3 6.5 6.8 8.9 19.6 22.1 30.2 31.3 31.9 27.6 70.3 47 111.4 56.2 21.8 4.9 35.8 6.3 59.9 6 12.1-.2 23.6-.6 25.5-.9 1.9-.4 7.8-1.3 13-2.2 25.4-4.2 45.9-10.9 70.5-22.9 80.2-39.3 132.1-113.8 142.2-204.1.5-3.8.8-16.4.8-27.9-.1-18.1-.5-24.4-3-40-1.8-11.5-7.1-31.8-11.3-43-5.5-14.8-7.3-18.9-14.1-32.1-16.6-31.9-38.3-58.7-65.6-80.9-37.6-30.4-79-48.1-130-55.6-7.2-1-49.8-2.3-50.6-1.5zm37.4 21c8.3.6 17.8 1.9 28.7 4.1 23.8 4.7 54 16.5 75.5 29.5 32.8 19.8 62 49.7 81.4 83.3 10.4 18.1 23.8 51.9 24.4 61.5l.2 3.6-40.5 23.8c-22.3 13.1-41.5 24.4-42.7 25.1-13.2 7.4-23.3 13.6-25.5 15.8-3 2.9-3.8 8.2-1.8 12 1.3 2.4 6.1 4.9 9.4 4.9 1.5 0 13.2-6.3 27.8-14.9 64.9-38.1 76.9-45.1 77.7-45.1.4 0 .8.6.8 1.2 0 .7.4 5.1.8 9.8 3.2 35.8-2.6 73.7-16.5 108.5-23.4 58.7-72 106.9-131.3 130.4-16.8 6.7-40.9 12.9-56.7 14.6-3 .3-7.3.8-9.5 1.1-4.8.7-35.8.7-40 0-1.6-.2-5.9-.7-9.5-1.1-3.6-.3-7.2-.8-8-1-.8-.2-3.1-.7-5-1-5.6-.8-13-2.5-20-4.6l-6.5-1.8-.3-44.8c-.2-24.6-.5-62.2-.7-83.4l-.4-38.5 6.3 6.2c16 15.9 38.1 25.2 61.1 25.8 46.2 1.2 84.7-30.9 92-76.6 8.6-54-33.4-103.7-88-104.2-17.2-.1-26.4 1.9-41.5 9.1-16.7 8-30.6 21.5-39.9 38.4-3 5.6-7.7 17.9-8.6 22.7-2.2 11.8-2.3 21.6-1.1 161.4.7 73.7.6 76.7-1.1 76.1-1-.4-7.9-3.7-15.3-7.4C93.2 437.5 50.9 387.6 31.2 326c-3.5-10.9-7.7-30.5-8.7-40-.3-3.6-.8-8.3-1.1-10.5-.7-5.9-.7-33.1 0-39.5.4-3 1.1-8.9 1.7-13 6.8-49.9 31.4-99.1 66.8-133.7 5.4-5.3 6.9-6.1 8.6-4.4.6.5 3.5 2.2 6.5 3.9 3 1.7 17 9.6 30.9 17.6 14 8 26.9 15 28.7 15.5 9.6 2.7 16.3-10.2 8.7-16.9-1.6-1.4-15.8-9.9-31.6-18.9-22.8-13-28.5-16.6-27.7-17.7 1.4-1.6 16.7-12 23.4-15.9 17.6-10.1 45.8-21.7 58.5-24.1 1.4-.3 2.8-.7 3.1-.9.4-.2 2.2-.7 4.1-1 1.9-.3 5.2-1 7.4-1.5s6.3-1.2 9-1.6c2.8-.3 5.9-.8 7-1 1.1-.2 6.7-.7 12.5-1 5.8-.4 10.6-.7 10.7-.8.4-.3 14.9.2 24.6.8zm-11.3 165c19.2 1.4 38.1 12.1 49.6 28.3 16 22.2 18 50.4 5.3 74.3-15.8 29.7-52.1 44.4-83.4 33.8-24-8.2-40.6-26-46.7-50.1-4.6-18.3-1.3-38 9-54.2 5.5-8.7 10-13.5 17.7-19 10.2-7.4 21.1-11.7 32.5-13.1 3-.3 5.7-.8 5.8-.9.2-.2.9-.2 1.5 0 .7.2 4.6.6 8.7.9z"/></svg>